<?xml version="1.0" encoding="utf-8"?>
<!-- Generator: Adobe Illustrator 27.7.0, SVG Export Plug-In . SVG Version: 6.00 Build 0)  -->
<svg version="1.1" id="icons" xmlns="http://www.w3.org/2000/svg" xmlns:xlink="http://www.w3.org/1999/xlink" x="0px" y="0px"
	 viewBox="0 0 456.4 464.5" style="enable-background:new 0 0 456.4 464.5;" xml:space="preserve">
<g>
	<g>
		<g>
			<g>
				<path d="M168.5,337c-45,0-87.3-17.5-119.1-49.4S0,213.5,0,168.5S17.5,81.1,49.4,49.4C81.2,17.5,123.5,0,168.5,0
					s87.3,17.5,119.1,49.4c65.7,65.7,65.7,172.6,0,238.3C255.8,319.5,213.5,337,168.5,337L168.5,337z M168.5,17.5
					c-40.3,0-78.3,15.7-106.8,44.2c-28.6,28.5-44.2,66.4-44.2,106.8s15.7,78.3,44.2,106.8s66.4,44.2,106.8,44.2
					c40.3,0,78.3-15.7,106.8-44.2c58.8-58.8,58.8-154.7,0-213.5C246.8,33.2,208.9,17.5,168.5,17.5z"/>
			</g>
		</g>
		<g>
			<g>
				<path d="M312.5,351.2c-2,0-4.1-0.8-5.7-2.3l-44.1-44.1c-3.1-3.1-3.1-8.2,0-11.3s8.2-3.1,11.3,0l44.1,44.1
					c3.1,3.1,3.1,8.2,0,11.3C316.6,350.4,314.6,351.2,312.5,351.2z"/>
			</g>
		</g>
		<g>
			<g>
				<path d="M335.2,328.5c-2,0-4.1-0.8-5.7-2.3l-44.1-44.1c-3.1-3.1-3.1-8.2,0-11.3s8.2-3.1,11.3,0l44.1,44.1
					c3.1,3.1,3.1,8.2,0,11.3C339.3,327.8,337.2,328.5,335.2,328.5z"/>
			</g>
		</g>
		<g>
			<g>
				<path d="M301.2,362.5c-2,0-4.1-0.8-5.7-2.3c-3.1-3.1-3.1-8.2,0-11.3l45.2-45.3c3.1-3.1,8.2-3.1,11.3,0s3.1,8.2,0,11.3
					l-45.2,45.3C305.3,361.7,303.3,362.5,301.2,362.5L301.2,362.5z"/>
			</g>
		</g>
		<g>
			<g>
				<path d="M393.9,455.1c-2,0-4.1-0.8-5.7-2.3l-92.6-92.6c-3.1-3.1-3.1-8.2,0-11.3s8.2-3.1,11.3,0l92.6,92.6
					c3.1,3.1,3.1,8.2,0,11.3C398,454.3,395.9,455.1,393.9,455.1L393.9,455.1z"/>
			</g>
		</g>
		<g>
			<g>
				<path d="M439.1,409.9c-2,0-4.1-0.8-5.7-2.3l-92.6-92.7c-3.1-3.1-3.1-8.2,0-11.3s8.2-3.1,11.3,0l92.6,92.7
					c3.1,3.1,3.1,8.2,0,11.3C443.2,409.1,441.2,409.9,439.1,409.9L439.1,409.9z"/>
			</g>
		</g>
		<g>
			<g>
				<path d="M416.5,464.5c-10.7,0-20.7-4.2-28.3-11.7c-3.1-3.1-3.1-8.2,0-11.3s8.2-3.1,11.3,0c9.1,9.1,24.9,9.1,33.9,0
					c4.5-4.5,7-10.6,7-17s-2.5-12.4-7-16.9c-3.1-3.1-3.1-8.2,0-11.3c3.1-3.1,8.2-3.1,11.3,0c7.6,7.5,11.7,17.6,11.7,28.3
					s-4.2,20.7-11.7,28.3C437.2,460.3,427.2,464.5,416.5,464.5L416.5,464.5z"/>
			</g>
		</g>
	</g>
	<g>
		<g>
			<g>
				<g>
					<path d="M157.2,251.5c-48.5,0-88-39.5-88-88c0-4.4,3.6-8,8-8s8,3.6,8,8c0,39.7,32.3,72,72,72s72-32.3,72-72c0-4.4,3.6-8,8-8
						s8,3.6,8,8C245.2,212,205.7,251.5,157.2,251.5z"/>
				</g>
			</g>
			<g>
				<g>
					<path d="M77.2,171.5c-4.4,0-8-3.6-8-8v-32c0-4.4,3.6-8,8-8s8,3.6,8,8v32C85.2,167.9,81.6,171.5,77.2,171.5z"/>
				</g>
			</g>
			<g>
				<g>
					<path d="M237.2,139.5h-160c-4.4,0-8-3.6-8-8c0-4.4,3.6-8,8-8h160c4.4,0,8,3.6,8,8C245.2,135.9,241.6,139.5,237.2,139.5z"/>
				</g>
			</g>
			<g>
				<g>
					<path d="M237.2,251.5h-160c-4.4,0-8-3.6-8-8s3.6-8,8-8h160c4.4,0,8,3.6,8,8S241.6,251.5,237.2,251.5z"/>
				</g>
			</g>
			<g>
				<g>
					<path d="M237.2,171.5c-4.4,0-8-3.6-8-8v-32c0-4.4,3.6-8,8-8s8,3.6,8,8v32C245.2,167.9,241.6,171.5,237.2,171.5z"/>
				</g>
			</g>
			<g>
				<g>
					<path d="M261.2,195.5c-4.4,0-8-3.6-8-8s3.6-8,8-8c8.8,0,16-7.2,16-16s-7.2-16-16-16c-8.8,0-16,7.2-16,16c0,4.4-3.6,8-8,8
						s-8-3.6-8-8c0-17.6,14.4-32,32-32s32,14.4,32,32S278.9,195.5,261.2,195.5z"/>
				</g>
			</g>
			<g>
				<g>
					<path d="M261.2,195.5h-27.7c-4.4,0-8-3.6-8-8s3.6-8,8-8h27.7c4.4,0,8,3.6,8,8S265.6,195.5,261.2,195.5z"/>
				</g>
			</g>
		</g>
		<g>
			<g>
				<path d="M157.2,115.5c-4.4,0-8-3.6-8-8v-48c0-4.4,3.6-8,8-8s8,3.6,8,8v48C165.2,111.9,161.6,115.5,157.2,115.5z"/>
			</g>
		</g>
		<g>
			<g>
				<path d="M197.2,115.5c-4.4,0-8-3.6-8-8v-24c0-4.4,3.6-8,8-8s8,3.6,8,8v24C205.2,111.9,201.6,115.5,197.2,115.5z"/>
			</g>
		</g>
		<g>
			<g>
				<path d="M117.2,115.5c-4.4,0-8-3.6-8-8v-24c0-4.4,3.6-8,8-8s8,3.6,8,8v24C125.2,111.9,121.6,115.5,117.2,115.5z"/>
			</g>
		</g>
	</g>
</g>
</svg>
