<svg height="512" viewBox="0 0 32 32" width="512" xmlns="http://www.w3.org/2000/svg"><g transform="scale(.5)"><path d="m58.483 20.777-18.007-8.607c-.501-.238-1.096-.027-1.334.471l-7.142 14.94-7.142-14.94c-.239-.5-.837-.71-1.333-.471l-18.008 8.608c-.389.186-.615.6-.561 1.028s.376.772.799.855l8.476 1.667-4.011 7.677c-.199.381-.132.848.167 1.157.299.311.764.394 1.151.208l17.105-8.176 2.249 4.704-9.846 20.597c-.238.499-.027 1.096.471 1.334.139.066.286.098.431.098.373 0 .731-.21.903-.568l9.149-19.14 9.149 19.141c.172.358.53.568.903.568.145 0 .291-.031.431-.098.498-.238.709-.835.471-1.334l-9.846-20.596 2.249-4.705 17.104 8.177c.388.184.852.103 1.151-.208.299-.31.366-.776.167-1.157l-4.012-7.678 8.477-1.668c.423-.083.745-.428.799-.855s-.171-.843-.56-1.029zm-45.101 9.495 3.241-6.204c.146-.279.152-.611.015-.896-.136-.285-.399-.488-.708-.548l-6.829-1.344 14.384-6.875 4.295 8.985zm34.687-7.647c-.31.061-.571.264-.708.548s-.131.616.015.896l3.242 6.204-14.398-6.882 4.295-8.985 14.385 6.875z"/></g></svg>