<svg clip-rule="evenodd" fill-rule="evenodd" height="8.467mm" image-rendering="optimizeQuality" shape-rendering="geometricPrecision" text-rendering="geometricPrecision" viewBox="0 0 846.66 846.66" width="8.467mm" xmlns="http://www.w3.org/2000/svg"><g id="Layer_x0020_1"><path d="m90.92 727.8v-603.53c0-32.2 13.16-61.46 34.35-82.66 21.2-21.2 50.46-34.36 82.67-34.36h475.07c20.03 0 38.22 8.18 51.39 21.35s21.34 31.36 21.34 51.38v686.7c0 20.02-8.17 38.21-21.34 51.38s-31.36 21.35-51.39 21.35h-480.49c-30.71 0-58.62-12.55-78.84-32.77-20.21-20.22-32.76-48.13-32.76-78.84zm282.31-484.01c-11.26 0-20.39-9.13-20.39-20.4 0-11.26 9.13-20.39 20.39-20.39h196.82c11.27 0 20.4 9.13 20.4 20.39 0 11.27-9.13 20.4-20.4 20.4zm-68.84-132.57h334.5c11.26 0 20.4 9.13 20.4 20.39v183.57c0 11.26-9.14 20.39-20.4 20.39h-334.5c-11.26 0-20.39-9.13-20.39-20.39v-183.57c0-11.26 9.13-20.39 20.39-20.39zm314.1 40.79h-293.7v142.77h293.7zm-390.16-103.97v419.09c0 11.26-9.13 20.39-20.39 20.39-11.27 0-20.4-9.13-20.4-20.39v-416.29c-12.79 3.58-24.26 10.44-33.42 19.61-13.83 13.83-22.41 32.88-22.41 53.82v517.4c19.29-15.9 43.98-25.48 70.81-25.48h512.43v-536.21c0-8.76-3.6-16.74-9.4-22.54-5.79-5.8-13.78-9.4-22.54-9.4h-454.68zm-25.81 750.58h480.49c8.76 0 16.75-3.6 22.54-9.4 5.8-5.8 9.4-13.78 9.4-22.54v-109.7h-512.43c-19.45 0-37.15 7.98-49.99 20.82-12.85 12.84-20.82 30.55-20.82 50s7.97 37.16 20.82 50c12.84 12.84 30.54 20.82 49.99 20.82z" fill-rule="nonzero"/></g></svg>