<svg id="Layer_1" enable-background="new 0 0 512 512" height="512" viewBox="0 0 512 512" width="512" xmlns="http://www.w3.org/2000/svg"><path d="m507.511 88.188c-1.242-4.214-4.688-7.413-8.982-8.338l-54.406-11.726-11.726-54.405c-.926-4.295-4.124-7.741-8.339-8.982-4.216-1.242-8.771-.081-11.877 3.025l-70.359 70.359c-33.368-18.15-70.901-27.709-109.15-27.709-61.08 0-118.505 23.786-161.694 66.976-43.192 43.19-66.978 100.614-66.978 161.694s23.786 118.505 66.977 161.694c43.189 43.19 100.614 66.977 161.694 66.977s118.504-23.786 161.694-66.977c43.19-43.189 66.977-100.614 66.977-161.694 0-37.983-9.44-75.295-27.365-108.508l70.508-70.509c3.107-3.107 4.268-7.663 3.026-11.877zm-225.042 190.894c0 27.458-22.339 49.797-49.798 49.797-27.458 0-49.797-22.339-49.797-49.797s22.339-49.797 49.797-49.797c9.407 0 18.211 2.623 25.724 7.174l-34.201 34.129c-4.69 4.682-4.699 12.279-.018 16.971 2.344 2.349 5.419 3.523 8.494 3.523 3.066 0 6.134-1.169 8.477-3.506l34.199-34.127c4.518 7.493 7.123 16.264 7.123 25.633zm-6.765-59.895c-12.124-8.735-26.982-13.902-43.033-13.902-40.691 0-73.797 33.105-73.797 73.797 0 40.691 33.105 73.797 73.797 73.797s73.798-33.105 73.798-73.797c0-15.995-5.132-30.806-13.812-42.907l38.113-38.033c18.193 22.01 29.136 50.221 29.136 80.94 0 70.157-57.077 127.234-127.234 127.234-70.156 0-127.233-57.077-127.233-127.234s57.077-127.234 127.233-127.234c30.814 0 59.104 11.014 81.143 29.308zm-43.033 264.566c-112.856 0-204.671-91.815-204.671-204.671s91.815-204.67 204.671-204.67c33.691 0 66.756 8.277 96.249 24.013.02.106.025.213.048.318l11.936 55.38-10.049 10.028c-26.44-22.62-60.742-36.303-98.184-36.303-83.391 0-151.233 67.843-151.233 151.234s67.843 151.234 151.233 151.234 151.234-67.844 151.234-151.234c0-37.328-13.602-71.534-36.099-97.941l9.906-9.886 55.791 12.024c.021.004.042.006.062.01 15.58 29.384 23.775 62.295 23.775 95.793.002 112.856-91.814 204.671-204.669 204.671zm179.499-325.313-34.224-7.376 28.559-28.499c4.69-4.682 4.699-12.279.018-16.97-4.682-4.692-12.279-4.7-16.971-.018l-28.443 28.383-7.302-33.883 59.77-59.77 8.717 40.444c.993 4.609 4.594 8.209 9.202 9.202l40.444 8.717z"/></svg>