<svg xmlns="http://www.w3.org/2000/svg" width="80" height="90.921" viewBox="0 0 80 90.921">
  <g id="Grupo_105" data-name="Grupo 105" transform="translate(-74.5 -44)">
    <g id="Capa_2" data-name="Capa 2" transform="translate(74.5 44)">
      <g id="Capa_1" data-name="Capa 1" transform="translate(0 0)">
        <path id="Trazado_1" data-name="Trazado 1" d="M5.093,4.191a2.476,2.476,0,0,1-1.547.54,1.762,1.762,0,0,1-.9-.228l.134-.3a1.087,1.087,0,0,0,.523.114c.55,0,1.107-.513,1.107-1.745A1.514,1.514,0,0,0,2.731.913c-.191,0-.272,0-.336.067a.527.527,0,0,0-.087.359V6.228c0,.5.023.785.168.953s.312.221.869.278v.336c-.584,0-1.084-.057-1.644-.057S.523,7.794,0,7.794V7.459c.483-.067.671-.111.829-.278s.178-.436.178-.943V2.077c0-.517-.02-.785-.168-.963A1.078,1.078,0,0,0,.06.839V.5c.533,0,1.05.05,1.594.05S2.577.5,3.278.5C4.7.5,5.865,1.171,5.865,2.513a2.134,2.134,0,0,1-.772,1.678" transform="translate(0 -0.329)" fill="#fff"/>
        <path id="Trazado_2" data-name="Trazado 2" d="M30.381,7.64A3.593,3.593,0,0,1,26.61,3.892a3.723,3.723,0,1,1,7.442-.144A3.634,3.634,0,0,1,30.381,7.64M30.19.48c-1.04,0-2.05.7-2.05,3.188S29.425,7.14,30.469,7.14s2.04-.708,2.04-3.194S31.22.48,30.19.48" transform="translate(-17.681 0.003)" fill="#fff"/>
        <path id="Trazado_3" data-name="Trazado 3" d="M62.352,7.043a2.621,2.621,0,0,1-1.748.627,2.792,2.792,0,0,1-1.98-.695L58.49,5.211l.413-.057c.336,1.611,1.134,1.99,1.678,1.99a1.342,1.342,0,0,0,.919-.336,1.275,1.275,0,0,0,.336-.829,1.423,1.423,0,0,0-.221-.839,2.037,2.037,0,0,0-.7-.617L59.9,3.94a3.312,3.312,0,0,1-.879-.671,1.9,1.9,0,0,1-.45-1.288A1.812,1.812,0,0,1,59.4.47,2.849,2.849,0,0,1,61.053.051,3.164,3.164,0,0,1,62.8.534l-.05,1.51-.362.067C62.221.792,61.49.534,60.953.534A1.07,1.07,0,0,0,59.8,1.47a1.228,1.228,0,0,0,.248.852,2.567,2.567,0,0,0,.648.49s.893.54,1.027.617a3.3,3.3,0,0,1,.986.819,2.013,2.013,0,0,1,.366,1.208,2.1,2.1,0,0,1-.725,1.587" transform="translate(-39.459 -0.028)" fill="#fff"/>
        <path id="Trazado_4" data-name="Trazado 4" d="M88.521,4.725c-.168.178-.141.47-.141.919v.725c0,.134.054.2.2.2v.188a5.033,5.033,0,0,1-2.943.876,3.563,3.563,0,0,1-3.8-3.862,3.671,3.671,0,0,1,3.9-3.778,4.9,4.9,0,0,1,2.486.58l.05,1.7-.366.067A2.057,2.057,0,0,0,85.762.464c-1.158,0-2.412.929-2.412,3.312s1.2,3.332,2.349,3.332,1.362-.389,1.362-.782V5.655c0-.45.037-.752-.141-.929a1.137,1.137,0,0,0-.772-.235V4.155c.537,0,1.044.057,1.574.057s.939-.057,1.47-.057V4.49a.929.929,0,0,0-.671.245" transform="translate(-55.235 0.009)" fill="#fff"/>
        <path id="Trazado_5" data-name="Trazado 5" d="M118.068,7.72c-.315,0-.983.057-.983.057l-1.466-2.933c-.144-.3-.225-.48-.527-.49l-.557-.034V6.2c0,.513,0,.785.154.953s.336.221.762.278v.336c-.527,0-1.027-.057-1.577-.057s-1.121.057-1.654.057V7.431c.446-.054.671-.111.825-.278s.178-.44.178-.963V2.049c0-.537-.023-.782-.168-.963a1.092,1.092,0,0,0-.785-.278V.472c.54,0,1.007.04,1.57.04s1.107-.054,1.634-.054a4.147,4.147,0,0,1,1.309.188,1.614,1.614,0,0,1,1.231,1.543c0,1.131-1.164,1.738-1.825,1.882.456.057.762.456,1.007.973l.839,1.634a1.517,1.517,0,0,0,.48.537,1.423,1.423,0,0,0,.574.211v.336c-.305,0-.718-.057-1.007-.057M114.995.871h-.258c-.114,0-.2.067-.2.235V3.962l.483-.034a1.469,1.469,0,0,0,1.564-1.611c0-1.151-.872-1.433-1.59-1.433" transform="translate(-75.741 -0.302)" fill="#fff"/>
        <path id="Trazado_6" data-name="Trazado 6" d="M144.938,7.532c-.533,0-1.094.054-1.631.054V7.25c.557-.091.839-.225.839-.56A2.537,2.537,0,0,0,144,6.1l-.366-1.211h-2.349L140.864,6.1a2.091,2.091,0,0,0-.128.591c0,.336.211.5.829.55v.336c-.46,0-.819-.054-1.275-.054s-.671.054-1.121.054V7.24a1.007,1.007,0,0,0,.7-.393,3.906,3.906,0,0,0,.336-.735l1.654-4.486A11.877,11.877,0,0,0,142.25.344s.856-.111,1.168-.174a13.8,13.8,0,0,0,.446,1.453L145.508,6.4a1.46,1.46,0,0,0,.336.574,1.114,1.114,0,0,0,.591.265v.336c-.523,0-.96-.054-1.51-.054m-2.456-6.181-1.007,2.99h1.993Z" transform="translate(-93.938 -0.11)" fill="#fff"/>
        <path id="Trazado_7" data-name="Trazado 7" d="M174.288,7.128a4.587,4.587,0,0,1-2.537.671c-.785,0-1.121-.054-1.678-.054s-1.1.054-1.654.054V7.463c.48-.064.671-.124.829-.292s.178-.413.178-.953V2.071c0-.527-.023-.785-.168-.966a1.084,1.084,0,0,0-.785-.275V.494c.55,0,1.054.044,1.6.044s1.007-.044,1.7-.044a4.6,4.6,0,0,1,2.211.48,3.466,3.466,0,0,1,1.782,3.134,3.486,3.486,0,0,1-1.49,3.02m-1.04-5.65a2.738,2.738,0,0,0-1.842-.54H171.2c-.386,0-.466.081-.466.507V6.735c0,.413.154.58.577.58h.228a2.523,2.523,0,0,0,1.825-.634,3.632,3.632,0,0,0,.879-2.627,3.1,3.1,0,0,0-1.007-2.577" transform="translate(-113.683 -0.324)" fill="#fff"/>
        <path id="Trazado_8" data-name="Trazado 8" d="M203.655,7.64a3.6,3.6,0,0,1-3.775-3.748,3.723,3.723,0,1,1,7.442-.154,3.633,3.633,0,0,1-3.667,3.892M203.46.47c-1.04,0-2.047.7-2.047,3.188S202.7,7.13,203.742,7.13s2.037-.708,2.037-3.194S204.49.47,203.46.47" transform="translate(-135.167 0.003)" fill="#fff"/>
        <path id="Trazado_9" data-name="Trazado 9" d="M235.662,7.044a2.614,2.614,0,0,1-1.748.627,2.8,2.8,0,0,1-1.98-.695L231.8,5.212l.413-.057c.336,1.611,1.134,1.99,1.678,1.99a1.312,1.312,0,0,0,.916-.336,1.245,1.245,0,0,0,.336-.829,1.4,1.4,0,0,0-.225-.839,2.013,2.013,0,0,0-.7-.617l-1.007-.584a3.245,3.245,0,0,1-.876-.671,1.9,1.9,0,0,1-.446-1.288A1.809,1.809,0,0,1,232.7.471,2.855,2.855,0,0,1,234.35.052,3.181,3.181,0,0,1,236.1.535l-.054,1.51-.359.057c-.168-1.319-.9-1.577-1.436-1.577a1.07,1.07,0,0,0-1.148.936,1.248,1.248,0,0,0,.245.852A2.53,2.53,0,0,0,234,2.8s.893.54,1.027.617a3.248,3.248,0,0,1,.983.819,2.013,2.013,0,0,1,.369,1.208,2.094,2.094,0,0,1-.715,1.587" transform="translate(-156.377 -0.029)" fill="#fff"/>
        <path id="Trazado_10" data-name="Trazado 10" d="M73.228,115.452a3.593,3.593,0,0,1-3.729-3.114c-.042-1.242.326-2.962,2.746-4.262,0,0,4.475-2.29,4.99-2.615V112.8s-2.446,2.657-4.006,2.657M17.058,39.086H80.1v7.023c-.948-1.661-2.847-2.475-5.264-2.462l-4.443,1.674c-2.068.791-4.042,1.622-4.032,3.464a2.071,2.071,0,0,0,2.225,2.271,2.53,2.53,0,0,0,2.2-1.392,2.438,2.438,0,0,1-.743-1.593c0-.921.586-2.3,2.883-2.313s4.234,1.353,4.267,4.791v.83c-1.485.924-7.775,4.016-7.775,4.016-1.987.95-3.72,2.329-3.7,5.08s2.7,4.892,6.537,4.866a23.375,23.375,0,0,0,5.023-3.786c0,2.206,1.094,3.627,2.814,3.721v4.807h-.531a10.656,10.656,0,0,1-5.622,1.972v.912c2.3.691,2.762,1.148,2.762,3.438V86.738c0,2.517-.651,3.072-3.176,3.208v1.145H80.1V98.61c-.977-1.57-2.824-2.352-5.166-2.352L70.466,97.91c-2.072.775-4.049,1.606-4.049,3.438a2.087,2.087,0,0,0,2.208,2.293,2.567,2.567,0,0,0,2.208-1.379,2.454,2.454,0,0,1-.736-1.6c0-.918.6-2.29,2.9-2.29s4.234,1.372,4.234,4.811v.834c-1.482.905-7.778,3.961-7.778,3.961-1.993.937-3.729,2.313-3.729,5.057a4.512,4.512,0,0,0,2.394,3.854h-5.8c-.941-.393-1.241-1.152-1.241-2.819V102.938c0-4.908-2.41-7.088-6.915-6.692-2.1,1.148-6.619,3.484-6.619,3.484l.049-3.348h-.651a15.259,15.259,0,0,1-5.72,1.969v.921c2.3.688,2.762,1.145,2.762,3.435v11.353c0,1.622-.267,2.41-1.12,2.819H37.718l1.954-1.985-.326-.441a3.393,3.393,0,0,1-2.029.775c-.778,0-1.472-.821-1.472-2.426V101.335c0-3.438-2.443-5.09-5.892-5.09L25.491,97.9c-2.075.775-4.052,1.606-4.052,3.438a2.08,2.08,0,0,0,2.208,2.293,2.555,2.555,0,0,0,2.212-1.379,2.454,2.454,0,0,1-.736-1.6c0-.918.6-2.29,2.9-2.29s4.234,1.372,4.234,4.811V104c-1.508.9-7.788,3.961-7.788,3.961-2.006.937-3.746,2.313-3.746,5.051a4.5,4.5,0,0,0,2.4,3.854H14.6c.111-.055.235-.1.326-.159l3.146-2.871-.033-1.129a11.728,11.728,0,0,1-6.736,2.018c-4.133,0-7.329-2.9-7.456-8.885-.094-4.814,2.094-8.051,5.98-8.051,2.469,0,4.518,1.054,4.518,2.718,0,1-.612,1.6-1.3,1.583a1.908,1.908,0,0,0,2.019,1.787,2.561,2.561,0,0,0,2.528-2.686c-.055-2.653-2.866-4.866-7.583-4.866a10.148,10.148,0,0,0-8.009,3.886V91.078H8.2V89.933c-2.436-.23-2.951-.691-2.951-3.2V75.261c1.156-.912,3.319-2.52,5.391-2.52,3.221,0,4.052,2.063,4.052,5.271v8.726c0,2.517-.55,2.978-2.931,3.208v1.145h9.465V89.946c-2.436-.23-2.931-.691-2.931-3.208V77.1c0-.918-.046-1.836-.046-1.836,1.147-.912,3.358-2.52,5.433-2.52,3.225,0,4.049,2.063,4.049,5.271v8.726c0,2.517-.55,2.978-2.931,3.208v1.145h9.772V89.946c-2.612-.243-3.264-.7-3.264-3.208V76.64c0-5.012-2.931-7.136-7.065-6.7a54.082,54.082,0,0,1-6.238,3.944c-.938-3.37-3.365-4.454-6.661-3.944a60.726,60.726,0,0,1-6.133,3.714l.039-3.568H4.495a6.26,6.26,0,0,1-2.5,1.372V64.777h8.25v-1.19c-2.28-.279-2.993-.457-3.681-1.148s-.782-1.6-.782-3.893V54.261H10.84a9.664,9.664,0,0,0,6.218-2.06,8.726,8.726,0,0,0,3.218-7.107,7.022,7.022,0,0,0-3.218-6.008M46.122,69.942c-5.211,0-10.048,3.964-10.048,11.055,0,5.631,3.629,10.633,10.013,10.633A9.174,9.174,0,0,0,49.421,91C52.209,89.057,54,87.864,54,87.864V86.709a11.681,11.681,0,0,1-6.586,1.713c-4.655,0-6.84-3.99-7.114-6.656L54,79.031c.508-7.029-3.71-9.083-7.882-9.083m17.354,4.726.049-4.583H62.7a12.6,12.6,0,0,1-5.537,1.972v.912c2.3.691,2.765,1.148,2.765,3.438V86.738c0,2.52-.651,3.072-3.179,3.208v1.145H67.381V89.946c-3.449-.23-3.863-.688-3.863-3.208V76.682c.824-1.379,2.391-3.893,3.681-3.893a.605.605,0,0,1,.691.594.839.839,0,0,1-.274.594,1.828,1.828,0,0,0,1.974,1.152A2.509,2.509,0,0,0,71.8,72.556a2.586,2.586,0,0,0-2.811-2.611,3.917,3.917,0,0,0-2.4,1.022c-1.583,1.992-3.124,3.7-3.124,3.7m-22.914-9.89h9.71V63.632c-2.394-.272-2.931-.691-2.931-3.208V48.747c1.15-.918,3.544-2.29,5.384-2.29,3.453,0,4.511,2.06,4.511,5.268v8.713c0,2.517-.554,2.978-2.931,3.208V64.79h9.772V63.645c-2.576-.23-3.221-.691-3.221-3.208v-10.1c0-4.908-2.41-7.084-6.918-6.689-2.143,1.148-6.661,3.484-6.661,3.484l.049-3.348h-.632a15.276,15.276,0,0,1-5.723,1.969v.918c2.3.691,2.765,1.145,2.765,3.442V60.424c0,2.517-.651,3.072-3.176,3.208ZM32.3,51.381c-1.482.915-7.752,4.006-7.752,4.006-1.993.96-3.723,2.339-3.707,5.077s2.7,4.892,6.534,4.866a23.443,23.443,0,0,0,5.029-3.786c0,2.3,1.169,3.753,3.013,3.743a4.28,4.28,0,0,0,1.954-.561l2.42-2.5-.342-.428a3.362,3.362,0,0,1-2.023.791c-.778,0-1.475-.821-1.485-2.42L35.868,48.7c-.023-3.438-2.469-5.077-5.922-5.054L25.5,45.321c-2.068.791-4.042,1.622-4.029,3.464a2.071,2.071,0,0,0,2.221,2.271,2.535,2.535,0,0,0,2.2-1.392,2.464,2.464,0,0,1-.749-1.593c0-.921.586-2.3,2.892-2.313s4.251,1.359,4.251,4.8ZM69.5,59.756a3.6,3.6,0,0,0,3.749,3.1c1.563,0,3.987-2.683,3.987-2.683l-.039-7.331c-.515.324-4.977,2.644-4.977,2.644-2.427,1.3-2.769,3.033-2.72,4.272M28.376,62.864c1.557,0,3.987-2.683,3.987-2.683l-.046-7.331c-.508.324-4.97,2.644-4.97,2.644-2.427,1.3-2.769,3.033-2.72,4.272a3.591,3.591,0,0,0,3.749,3.1M46.291,71.4c-3.821,0-6.241,3.387-6.143,9l9.918-1.979c.749-5.154-1.707-7.023-3.775-7.023M77.28,114.168a21.112,21.112,0,0,1-3.352,2.705h4.137a4.369,4.369,0,0,1-.785-2.705M6.228,39.09c-.368.324-.459.873-.459,2.021V52.788h4.56c2.9,0,5.433-2.43,5.433-7.24,0-3.669-1.8-5.7-4.69-6.468H6.228M1.993,114.038v2.835H5.381a9.436,9.436,0,0,1-3.387-2.835m30.292.13a21.157,21.157,0,0,1-3.355,2.705h4.137a4.411,4.411,0,0,1-.782-2.705m25.207-.114v-9.731c0-3.2-1.055-5.268-4.508-5.268-1.84,0-4.234,1.375-5.384,2.293v12.719c0,1.7.264,2.43,1.166,2.819h7.609c.866-.392,1.117-1.152,1.117-2.819m-25.253-1.259v-7.347c-.515.324-4.987,2.615-4.987,2.615-2.44,1.3-2.788,3.02-2.749,4.262a3.6,3.6,0,0,0,3.736,3.114c1.557,0,4-2.657,4-2.657" transform="translate(-1.322 -25.965)" fill="#fff"/>
      </g>
    </g>
  </g>
</svg>
